<?xml version="1.0" encoding="utf-8"?>
<!-- Generator: Adobe Illustrator 15.1.0, SVG Export Plug-In . SVG Version: 6.00 Build 0)  -->
<!DOCTYPE svg PUBLIC "-//W3C//DTD SVG 1.1//EN" "http://www.w3.org/Graphics/SVG/1.1/DTD/svg11.dtd">
<svg version="1.1" id="Layer_1" xmlns="http://www.w3.org/2000/svg" xmlns:xlink="http://www.w3.org/1999/xlink" x="0px" y="0px"
	 width="580px" height="580px" viewBox="0 0 580 580" enable-background="new 0 0 580 580" xml:space="preserve">
<sodipodi:namedview  showgrid="false" inkscape:current-layer="svg2" inkscape:window-y="-4" inkscape:window-x="-4" inkscape:cy="535.80126" inkscape:zoom="0.65172414" pagecolor="#ffffff" bordercolor="#666666" borderopacity="1.0" objecttolerance="10.0" gridtolerance="10.0" inkscape:pageopacity="0.0" inkscape:window-height="1005" guidetolerance="10.0" inkscape:cx="280.8225" inkscape:pageshadow="2" id="base" inkscape:window-width="1280">
	</sodipodi:namedview>
<defs>
	
	
		<inkscape:perspective  inkscape:vp_z="580 : 290 : 1" sodipodi:type="inkscape:persp3d" inkscape:vp_x="0 : 290 : 1" inkscape:vp_y="0 : 1000 : 0" inkscape:persp3d-origin="290 : 193.33333 : 1" id="perspective3579">
		</inkscape:perspective>
</defs>
<g id="g1327">
	<path id="path1329" fill="#680000" stroke="#EEEEEE" stroke-width="3.408" d="M66.275,1.768c-41.335,0-64.569,21.371-64.569,65.036
		v450.123c0,40.844,20.895,62.229,62.19,62.229H515.92c41.307,0,62.229-20.313,62.229-62.229V66.804
		c0-42.603-20.922-65.036-63.521-65.036C514.622,1.768,66.133,1.625,66.275,1.768z"/>
</g>
<path id="path6015" sodipodi:nodetypes="cszss" fill="#FFFFFF" stroke="#FFFFFF" stroke-width="11.34" stroke-linecap="round" stroke-linejoin="round" d="
	M290.438,207.57c-0.468,0.521-16.993-43.693-29.968-97.312c-2.958-12.223-24.421-75.246,28.92-75.217
	c54.585,0.028,32.955,63.817,28.892,78.315C303.962,164.447,290.906,207.05,290.438,207.57z"/>
<g id="use6027" transform="matrix(0.8077858,-0.4663754,0.4663754,0.8077858,-36.482068,516.74249)">
	
		<path id="path6015_1_" sodipodi:nodetypes="cszss" fill="#FFFFFF" stroke="#FFFFFF" stroke-width="11.34" stroke-linecap="round" stroke-linejoin="round" d="
		M521.087-21.294c-0.356-0.546,43.471-4.761,94.91-3.508c11.724,0.285,73.69-3.838,60.786,44.214
		c-13.204,49.173-65.454,14.285-77.535,7.125C556.675,1.301,521.445-20.745,521.087-21.294z"/>
</g>
<path id="path6015_3_" sodipodi:nodetypes="cszss" fill="#FFFFFF" stroke="#FFFFFF" stroke-width="11.34" stroke-linecap="round" stroke-linejoin="round" d="
	M343.158,348.654c0.135-0.64,34.103,27.37,69.59,64.632c8.091,8.493,54.822,49.395,11.719,74.247
	c-44.105,25.433-56.383-36.183-59.862-49.787C352.344,389.795,343.024,349.294,343.158,348.654z"/>
<path id="path6015_4_" sodipodi:nodetypes="cszss" fill="#FFFFFF" stroke="#FFFFFF" stroke-width="11.34" stroke-linecap="round" stroke-linejoin="round" d="
	M377.798,301.238c-0.337-0.559,43.609-3.211,94.974-0.13c11.708,0.704,73.781-1.213,59.175,46.351
	c-14.944,48.672-65.92,11.947-77.738,4.361C412.559,325.085,378.135,301.798,377.798,301.238z"/>
<path id="path6015_5_" sodipodi:nodetypes="cszss" fill="#FFFFFF" stroke="#FFFFFF" stroke-width="11.34" stroke-linecap="round" stroke-linejoin="round" d="
	M346.31,220.271c-0.622,0.203,6.651-43.219,21.176-92.583c3.312-11.253,15.366-72.173,58.441-47.272
	c44.079,25.481-3.143,66.92-13.186,76.737C377.346,191.745,346.931,220.069,346.31,220.271z"/>
<path id="path6015_6_" sodipodi:nodetypes="cszss" fill="#FFFFFF" stroke="#FFFFFF" stroke-width="11.34" stroke-linecap="round" stroke-linejoin="round" d="
	M290.413,364.049c0.496-0.496,14.652,44.533,24.764,98.765c2.305,12.362,20.394,76.438-32.871,73.578
	c-54.508-2.927-29.521-65.479-24.696-79.738C274.621,406.394,289.919,364.544,290.413,364.049z"/>
<g id="Layer_1_1_">
</g>
<circle fill="#FFFFFF" stroke="#FFFFFF" stroke-width="16.38" stroke-linecap="round" stroke-linejoin="round" cx="293.559" cy="285.157" r="29.834"/>
</svg>
