<?xml version="1.0" encoding="utf-8"?>
<!-- Generator: Adobe Illustrator 15.1.0, SVG Export Plug-In . SVG Version: 6.00 Build 0)  -->
<!DOCTYPE svg PUBLIC "-//W3C//DTD SVG 1.1//EN" "http://www.w3.org/Graphics/SVG/1.1/DTD/svg11.dtd">
<svg version="1.1"
	 id="svg2" xmlns:dc="http://purl.org/dc/elements/1.1/" xmlns:cc="http://creativecommons.org/ns#" xmlns:svg="http://www.w3.org/2000/svg" xmlns:rdf="http://www.w3.org/1999/02/22-rdf-syntax-ns#" xmlns:sodipodi="http://sodipodi.sourceforge.net/DTD/sodipodi-0.dtd" xmlns:inkscape="http://www.inkscape.org/namespaces/inkscape" inkscape:output_extension="org.inkscape.output.svg.inkscape" sodipodi:docbase="s:\Data\FacilityIcons" sodipodi:docname="leaisure_picnic.svg" sodipodi:version="0.32" inkscape:version="0.46"
	 xmlns="http://www.w3.org/2000/svg" xmlns:xlink="http://www.w3.org/1999/xlink" x="0px" y="0px" width="580px" height="580px"
	 viewBox="0 0 580 580" enable-background="new 0 0 580 580" xml:space="preserve">
<sodipodi:namedview  showgrid="false" inkscape:current-layer="svg2" inkscape:window-y="25" inkscape:window-x="91" inkscape:cy="281.19503" inkscape:zoom="0.92167712" pagecolor="#ffffff" bordercolor="#666666" borderopacity="1.0" objecttolerance="10.0" gridtolerance="10.0" inkscape:pageopacity="0.0" inkscape:window-height="947" guidetolerance="10.0" inkscape:cx="301.5186" inkscape:pageshadow="2" id="base" inkscape:window-width="1048">
	</sodipodi:namedview>
<defs>
	
	
		<inkscape:perspective  inkscape:vp_z="580 : 290 : 1" sodipodi:type="inkscape:persp3d" inkscape:vp_x="0 : 290 : 1" inkscape:vp_y="0 : 1000 : 0" inkscape:persp3d-origin="290 : 193.33333 : 1" id="perspective2441">
		</inkscape:perspective>
	
		<inkscape:perspective  inkscape:vp_z="60 : 30 : 1" sodipodi:type="inkscape:persp3d" inkscape:vp_x="0 : 30 : 1" inkscape:vp_y="0 : 1000 : 0" inkscape:persp3d-origin="30 : 20 : 1" id="perspective3452">
		</inkscape:perspective>
	
		<inkscape:perspective  inkscape:vp_z="744.09448 : 526.18109 : 1" sodipodi:type="inkscape:persp3d" inkscape:vp_x="0 : 526.18109 : 1" inkscape:vp_y="0 : 1000 : 0" inkscape:persp3d-origin="372.04724 : 350.78739 : 1" id="perspective4471">
		</inkscape:perspective>
	
		<inkscape:perspective  inkscape:vp_z="12 : 6 : 1" sodipodi:type="inkscape:persp3d" inkscape:vp_x="0 : 6 : 1" inkscape:vp_y="0 : 1000 : 0" inkscape:persp3d-origin="6 : 4 : 1" id="perspective4668">
		</inkscape:perspective>
</defs>
<g id="g1327">
	<path id="path1329" fill="#680000" stroke="#EEEEEE" stroke-width="3.408" d="M66.275,1.768c-41.335,0-64.57,21.371-64.57,65.036
		v450.123c0,40.844,20.895,62.229,62.191,62.229H515.92c41.307,0,62.229-20.314,62.229-62.229V66.804
		c0-42.602-20.922-65.036-63.521-65.036C514.623,1.768,66.133,1.625,66.275,1.768z"/>
</g>
<g id="layer3" transform="matrix(48.14969,0,0,48.14969,-536.27327,-33.306752)" inkscape:label="Layout" display="none">
	<rect id="rect4134" x="1" y="1" display="inline" fill="none" stroke="#757575" stroke-width="0.1" width="10" height="10"/>
	<rect id="rect4136" x="2" y="2" display="inline" fill="none" stroke="#757575" stroke-width="0.1" width="8" height="8"/>
</g>
<path id="flowRoot3192" fill="#FFFFFF" d="M211.691,284.475l47.579-116.902h48.761l47.579,116.902H211.691z M366.778,167.573h79.291
	V124.1H131.79v43.473h78.718l-47.579,116.902H46.618v43.456h98.688L90.684,464.23h53.458l55.215-136.299h178.572l55.215,136.299
	h54.05l-55.215-136.299h99.279v-43.456H414.357L366.778,167.573z"/>
</svg>
