<?xml version="1.0" encoding="utf-8"?>
<!-- Generator: Adobe Illustrator 15.1.0, SVG Export Plug-In . SVG Version: 6.00 Build 0)  -->
<!DOCTYPE svg PUBLIC "-//W3C//DTD SVG 1.1//EN" "http://www.w3.org/Graphics/SVG/1.1/DTD/svg11.dtd">
<svg version="1.1"
	 id="svg2" xmlns:dc="http://purl.org/dc/elements/1.1/" xmlns:cc="http://creativecommons.org/ns#" xmlns:svg="http://www.w3.org/2000/svg" xmlns:rdf="http://www.w3.org/1999/02/22-rdf-syntax-ns#" xmlns:sodipodi="http://sodipodi.sourceforge.net/DTD/sodipodi-0.dtd" xmlns:inkscape="http://www.inkscape.org/namespaces/inkscape" inkscape:output_extension="org.inkscape.output.svg.inkscape" sodipodi:docbase="s:\Data\FacilityIcons" sodipodi:docname="sport_skiing_downhill.svg" sodipodi:version="0.32" inkscape:version="0.46"
	 xmlns="http://www.w3.org/2000/svg" xmlns:xlink="http://www.w3.org/1999/xlink" x="0px" y="0px" width="580px" height="580px"
	 viewBox="0 0 580 580" enable-background="new 0 0 580 580" xml:space="preserve">
<sodipodi:namedview  showgrid="false" inkscape:current-layer="svg2" inkscape:window-y="25" inkscape:window-x="91" inkscape:cy="281.19503" inkscape:zoom="0.92167712" pagecolor="#ffffff" bordercolor="#666666" borderopacity="1.0" objecttolerance="10.0" gridtolerance="10.0" inkscape:pageopacity="0.0" inkscape:window-height="947" guidetolerance="10.0" inkscape:cx="301.5186" inkscape:pageshadow="2" id="base" inkscape:window-width="1048">
	</sodipodi:namedview>
<defs>
	
	
		<inkscape:perspective  inkscape:vp_z="580 : 290 : 1" sodipodi:type="inkscape:persp3d" inkscape:vp_x="0 : 290 : 1" inkscape:vp_y="0 : 1000 : 0" inkscape:persp3d-origin="290 : 193.33333 : 1" id="perspective2441">
		</inkscape:perspective>
	
		<inkscape:perspective  inkscape:vp_z="60 : 30 : 1" sodipodi:type="inkscape:persp3d" inkscape:vp_x="0 : 30 : 1" inkscape:vp_y="0 : 1000 : 0" inkscape:persp3d-origin="30 : 20 : 1" id="perspective3452">
		</inkscape:perspective>
	
		<inkscape:perspective  inkscape:vp_z="744.09448 : 526.18109 : 1" sodipodi:type="inkscape:persp3d" inkscape:vp_x="0 : 526.18109 : 1" inkscape:vp_y="0 : 1000 : 0" inkscape:persp3d-origin="372.04724 : 350.78739 : 1" id="perspective4471">
		</inkscape:perspective>
	
		<inkscape:perspective  inkscape:vp_z="12 : 6 : 1" sodipodi:type="inkscape:persp3d" inkscape:vp_x="0 : 6 : 1" inkscape:vp_y="0 : 1000 : 0" inkscape:persp3d-origin="6 : 4 : 1" id="perspective4668">
		</inkscape:perspective>
</defs>
<g id="g1327">
	<path id="path1329" fill="#680000" stroke="#EEEEEE" stroke-width="3.408" d="M66.275,1.768c-41.335,0-64.57,21.371-64.57,65.036
		v450.123c0,40.844,20.895,62.229,62.191,62.229H515.92c41.307,0,62.229-20.314,62.229-62.229V66.804
		c0-42.602-20.922-65.036-63.521-65.036C514.623,1.768,66.133,1.625,66.275,1.768z"/>
</g>
<g id="layer3" transform="matrix(48.14969,0,0,48.14969,-536.27327,-33.306752)" inkscape:label="Layout" display="none">
	<rect id="rect4134" x="1" y="1" display="inline" fill="none" stroke="#757575" stroke-width="0.1" width="10" height="10"/>
	<rect id="rect4136" x="2" y="2" display="inline" fill="none" stroke="#757575" stroke-width="0.1" width="8" height="8"/>
</g>
<path id="flowRoot3192" fill="#FFFFFF" d="M478.496,240.411c10.959,0,20.258-3.818,27.895-11.455s11.455-16.936,11.456-27.895
	c-0.001-10.972-3.819-20.275-11.456-27.913c-7.637-7.636-16.936-11.455-27.895-11.455c-10.577,0-19.782,3.819-27.616,11.455
	c-7.835,7.638-11.752,16.941-11.751,27.913c-0.001,10.959,3.916,20.258,11.751,27.895
	C458.714,236.593,467.919,240.411,478.496,240.411L478.496,240.411z M514.333,509.461l-14.109-8.229
	c-4.697,7.828-11.551,11.742-20.562,11.742c-4.304,0-8.415-1.172-12.334-3.514L53.787,266.261l-8.229,14.091l413.559,243.198
	c6.262,3.526,13.11,5.289,20.545,5.289C494.936,528.84,506.492,522.38,514.333,509.461L514.333,509.461z M183.597,320.885
	c2.354,0.395,5.683-0.191,9.985-1.757l113.389-37.002c10.959-3.92,17.027-9.991,18.205-18.214
	c1.177-8.222,1.568-12.728,1.174-13.517l-17.03-61.687l68.141,40.532l8.229,59.339c1.565,10.577,6.064,18.017,13.499,22.319
	l88.703,51.702c3.131,1.96,6.262,2.939,9.394,2.939c5.88,0,10.776-2.059,14.691-6.176c3.913-4.117,5.87-8.912,5.871-14.387
	c-0.001-7.84-3.521-13.714-10.56-17.622l-70.507-41.125l-7.637-105.733c-1.172-14.103-7.237-24.285-18.196-30.548L309.32,90.021
	c-9.406-5.474-19.2-8.211-29.383-8.211c-18.405,0-32.699,7.44-42.881,22.319c-5.869,9.012-8.803,18.8-8.803,29.364
	c0,4.697,0.586,9.4,1.757,14.108l27.607,89.868l-82.822,26.442c-11.749,3.526-18.405,12.144-19.971,25.852
	C152.47,308.17,162.061,318.544,183.597,320.885L183.597,320.885z"/>
</svg>
